<svg width="20" height="20" viewBox="0 0 20 20" fill="none" xmlns="http://www.w3.org/2000/svg">
<path d="M10.3 0.900009C10.4 1.00001 10.5 1.00001 10.6 1.10001C11.3 1.70001 11.9 2.20001 12.6 2.80001C12.9 3.00001 13.2 3.20001 13.5 3.20001C14.4 3.30001 15.2 3.40001 16.1 3.40001C16.6 3.40001 16.7 3.50001 16.8 4.10001C16.9 5.00001 16.9 5.90001 17 6.70001C17 7.10001 17.2 7.40001 17.4 7.70001C18 8.40001 18.5 9.00001 19.1 9.70001C19.4 10.1 19.4 10.2 19.1 10.5C18.6 11.1 18 11.8 17.5 12.4C17.2 12.7 17 13.1 17 13.6C16.9 14.4 16.8 15.3 16.8 16.1C16.8 16.5 16.6 16.6 16.2 16.7C15.4 16.7 14.6 16.8 13.7 16.9C13.2 16.9 12.7 17.1 12.3 17.4C11.7 17.9 11 18.5 10.4 19C10.1 19.3 9.89998 19.3 9.59998 19C8.89998 18.4 8.19998 17.8 7.59998 17.2C7.29998 17 6.99998 16.8 6.69998 16.8C5.79998 16.7 4.89998 16.6 3.99998 16.6C3.59998 16.6 3.49998 16.4 3.39998 16.1C3.39998 15.2 3.29998 14.4 3.19998 13.5C3.19998 13.1 2.99998 12.7 2.79998 12.4C2.19998 11.8 1.69998 11.1 1.19998 10.4C0.799983 10 0.899983 9.90001 1.19998 9.40001C1.79998 8.80001 2.29998 8.10001 2.89998 7.50001C3.19998 7.20001 3.29998 6.90001 3.29998 6.50001C3.29998 5.70001 3.39998 4.90001 3.49998 4.00001C3.49998 3.50001 3.59998 3.40001 4.09998 3.40001C4.99998 3.30001 5.79998 3.30001 6.69998 3.20001C7.09998 3.20001 7.39998 3.00001 7.69998 2.80001C8.39998 2.20001 9.09998 1.60001 9.79998 1.10001C9.89998 0.900009 10.1 0.800009 10.3 0.900009Z" fill="#1A9CFF"/>
<path d="M14.4 8.10001L14.2 8.30001L8.79998 13.7C8.69998 13.8 8.59998 13.9 8.39998 13.7L5.79998 11.1C5.59998 10.9 5.69998 10.8 5.79998 10.7C5.99998 10.5 6.29998 10.1 6.49998 10.1C6.79998 10.1 6.99998 10.5 7.19998 10.7L8.29998 11.8C8.49998 12 8.59998 12 8.79998 11.8L13.1 7.50001C13.3 7.30001 13.5 7.20001 13.7 7.50001C13.8 7.70001 14 7.80001 14.1 8.00001C14.3 8.00001 14.4 8.10001 14.4 8.10001Z" fill="white"/>
</svg>
